<svg xmlns="http://www.w3.org/2000/svg" xmlns:xlink="http://www.w3.org/1999/xlink" width="175" zoomAndPan="magnify" viewBox="0 0 131.25 37.5" height="50" preserveAspectRatio="xMidYMid meet" version="1.0"><defs><g/><clipPath id="b9fe523051"><path d="M 2.445312 0.984375 L 30.570312 0.984375 L 30.570312 35.769531 L 2.445312 35.769531 Z M 2.445312 0.984375 " clip-rule="nonzero"/></clipPath></defs><g fill="#1da1f2" fill-opacity="1"><g transform="translate(32.729854, 24.794408)"><g><path d="M 9.28125 -10.109375 L 9.28125 0 L 4.90625 0 L 4.90625 -10.109375 L 0.453125 -10.109375 L 0.453125 -13.578125 L 13.71875 -13.578125 L 13.71875 -10.109375 Z M 9.28125 -10.109375 "/></g></g></g><g fill="#1da1f2" fill-opacity="1"><g transform="translate(46.974236, 24.794408)"><g><path d="M 14.34375 -9.40625 C 14.34375 -8.582031 14.117188 -7.832031 13.671875 -7.15625 C 13.222656 -6.488281 12.570312 -6 11.71875 -5.6875 L 14.734375 0 L 9.84375 0 L 7.4375 -4.953125 L 5.828125 -4.953125 L 5.828125 0 L 1.453125 0 L 1.453125 -13.578125 L 9.765625 -13.578125 C 10.742188 -13.578125 11.578125 -13.390625 12.265625 -13.015625 C 12.953125 -12.640625 13.46875 -12.128906 13.8125 -11.484375 C 14.164062 -10.847656 14.34375 -10.15625 14.34375 -9.40625 Z M 9.90625 -9.234375 C 9.90625 -9.585938 9.785156 -9.882812 9.546875 -10.125 C 9.316406 -10.363281 9.03125 -10.484375 8.6875 -10.484375 L 5.828125 -10.484375 L 5.828125 -7.96875 L 8.6875 -7.96875 C 9.03125 -7.96875 9.316406 -8.085938 9.546875 -8.328125 C 9.785156 -8.578125 9.90625 -8.878906 9.90625 -9.234375 Z M 9.90625 -9.234375 "/></g></g></g><g fill="#1da1f2" fill-opacity="1"><g transform="translate(62.323439, 24.794408)"><g><path d="M 10.5625 0 L 9.984375 -1.921875 L 5.234375 -1.921875 L 4.65625 0 L 0.203125 0 L 5.15625 -13.578125 L 10.21875 -13.578125 L 15.171875 0 Z M 6.140625 -4.953125 L 9.078125 -4.953125 L 7.65625 -9.78125 L 7.578125 -9.78125 Z M 6.140625 -4.953125 "/></g></g></g><g fill="#1da1f2" fill-opacity="1"><g transform="translate(77.672642, 24.794408)"><g><path d="M 7.9375 -13.8125 C 9.945312 -13.8125 11.535156 -13.304688 12.703125 -12.296875 C 13.878906 -11.296875 14.46875 -9.863281 14.46875 -8 L 10.296875 -8 C 10.296875 -8.78125 10.085938 -9.398438 9.671875 -9.859375 C 9.265625 -10.328125 8.675781 -10.5625 7.90625 -10.5625 C 7.03125 -10.5625 6.382812 -10.285156 5.96875 -9.734375 C 5.550781 -9.179688 5.34375 -8.410156 5.34375 -7.421875 L 5.34375 -6.15625 C 5.34375 -5.1875 5.550781 -4.421875 5.96875 -3.859375 C 6.382812 -3.296875 7.019531 -3.015625 7.875 -3.015625 C 8.71875 -3.015625 9.351562 -3.234375 9.78125 -3.671875 C 10.21875 -4.109375 10.4375 -4.71875 10.4375 -5.5 L 14.46875 -5.5 C 14.46875 -3.644531 13.894531 -2.222656 12.75 -1.234375 C 11.613281 -0.253906 10.007812 0.234375 7.9375 0.234375 C 5.613281 0.234375 3.859375 -0.351562 2.671875 -1.53125 C 1.484375 -2.71875 0.890625 -4.46875 0.890625 -6.78125 C 0.890625 -9.101562 1.484375 -10.851562 2.671875 -12.03125 C 3.859375 -13.21875 5.613281 -13.8125 7.9375 -13.8125 Z M 7.9375 -13.8125 "/></g></g></g><g fill="#1da1f2" fill-opacity="1"><g transform="translate(93.021846, 24.794408)"><g><path d="M 10.65625 -13.578125 L 16.0625 -13.578125 L 11.1875 -8 L 16.15625 0 L 11.015625 0 L 8.1875 -4.96875 L 5.828125 -3.046875 L 5.828125 0 L 1.453125 0 L 1.453125 -13.578125 L 5.828125 -13.578125 L 5.828125 -7.78125 Z M 10.65625 -13.578125 "/></g></g></g><g fill="#1da1f2" fill-opacity="1"><g transform="translate(109.456152, 24.794408)"><g><path d="M 14.34375 -9.40625 C 14.34375 -8.582031 14.117188 -7.832031 13.671875 -7.15625 C 13.222656 -6.488281 12.570312 -6 11.71875 -5.6875 L 14.734375 0 L 9.84375 0 L 7.4375 -4.953125 L 5.828125 -4.953125 L 5.828125 0 L 1.453125 0 L 1.453125 -13.578125 L 9.765625 -13.578125 C 10.742188 -13.578125 11.578125 -13.390625 12.265625 -13.015625 C 12.953125 -12.640625 13.46875 -12.128906 13.8125 -11.484375 C 14.164062 -10.847656 14.34375 -10.15625 14.34375 -9.40625 Z M 9.90625 -9.234375 C 9.90625 -9.585938 9.785156 -9.882812 9.546875 -10.125 C 9.316406 -10.363281 9.03125 -10.484375 8.6875 -10.484375 L 5.828125 -10.484375 L 5.828125 -7.96875 L 8.6875 -7.96875 C 9.03125 -7.96875 9.316406 -8.085938 9.546875 -8.328125 C 9.785156 -8.578125 9.90625 -8.878906 9.90625 -9.234375 Z M 9.90625 -9.234375 "/></g></g></g><g clip-path="url(#b9fe523051)"><path fill="#1da1f2" d="M 6.066406 22.113281 L 2.84375 33.640625 C 2.695312 34.144531 2.796875 34.683594 3.125 35.109375 C 3.4375 35.523438 3.933594 35.769531 4.460938 35.769531 L 28.558594 35.769531 C 29.085938 35.769531 29.582031 35.523438 29.894531 35.109375 C 30.222656 34.683594 30.324219 34.144531 30.175781 33.640625 L 26.953125 22.113281 C 26.75 21.386719 26.085938 20.890625 25.332031 20.890625 L 23.386719 20.890625 C 25.121094 17.671875 26.582031 14.070312 26.582031 11.039062 C 26.582031 5.496094 22.0625 0.984375 16.507812 0.984375 C 10.957031 0.984375 6.4375 5.496094 6.4375 11.039062 C 6.4375 14.070312 7.898438 17.671875 9.632812 20.890625 L 7.6875 20.890625 C 6.933594 20.890625 6.269531 21.386719 6.066406 22.113281 Z M 16.507812 5.945312 C 19.320312 5.945312 21.613281 8.234375 21.613281 11.039062 C 21.613281 13.855469 19.320312 16.144531 16.507812 16.144531 C 13.6875 16.144531 11.40625 13.855469 11.40625 11.039062 C 11.40625 8.234375 13.6875 5.945312 16.507812 5.945312 Z M 11.597656 24.257812 C 13.40625 27.117188 15.039062 29.183594 15.195312 29.375 C 15.507812 29.777344 15.992188 30.015625 16.507812 30.015625 C 17.027344 30.015625 17.511719 29.777344 17.824219 29.375 C 17.980469 29.183594 19.613281 27.117188 21.421875 24.257812 L 24.050781 24.257812 L 26.332031 32.40625 L 6.6875 32.40625 L 8.96875 24.257812 Z M 11.597656 24.257812 " fill-opacity="1" fill-rule="nonzero"/></g><path fill="#1da1f2" d="M 16.507812 12.777344 C 17.464844 12.777344 18.242188 11.992188 18.242188 11.039062 C 18.242188 10.085938 17.464844 9.3125 16.507812 9.3125 C 15.554688 9.3125 14.777344 10.085938 14.777344 11.039062 C 14.777344 11.992188 15.554688 12.777344 16.507812 12.777344 Z M 16.507812 12.777344 " fill-opacity="1" fill-rule="nonzero"/></svg>